<?xml version="1.0" encoding="UTF-8"?>
<svg id="Layer_2" data-name="Layer 2" xmlns="http://www.w3.org/2000/svg" viewBox="0 0 138.69 139.92">
  <g id="Layer_1-2" data-name="Layer 1">
    <g>
      <path d="M129.83,73.37c0,33.06-26.8,59.87-59.87,59.87S10.09,106.44,10.09,73.37,36.9,13.5,69.96,13.5s59.87,26.8,59.87,59.87ZM28.84,70.27h6.6l2.88-6.88,14.26-.14,2.65,7.02h7.06l-13.22-34.64-6.84-.05-13.38,34.69ZM79.63,35.59c-4.07-.36-8.62.27-12.73,0v34.67h13.65c5.51,0,11.11-4.87,12.82-9.89,3.71-10.88-1.33-23.69-13.74-24.79ZM44.49,81.77c-.15,1.52.11,3.22,0,4.76h6.14v-6.75h-2.45s2.15-4.75,2.15-4.75l-2.31-1.68c-1.99,2.3-3.23,5.38-3.52,8.43ZM55.85,85.3h5.98c.73-.9.62-2.12,1.11-3.19,1.88-4.12,8.39-3.24,8.86,1.19.36,3.39-1.25,5.61-3.22,8.14s-13.77,13.57-13.96,14.58c-.17.87.09,1.99,0,2.91h24.24v-6.14h-12.27c5.62-6.14,16.38-15.92,10.08-24.96-6.33-9.08-21.69-3.73-20.82,7.47ZM104.63,74.26h-16.26l-4.3,19.33c1.51-.13,4.02,1.11,5.35.93.76-.1,1.82-1.55,2.84-1.78,6.75-1.52,8.62,7.89,3.55,10.3-2.05.97-4.38.68-6.06-.85-.34-.31-1.23-1.84-1.54-1.84h-6.6c1.17,8.76,12.47,12.04,19.03,6.91,7.94-6.19,5.03-20.45-5.69-21.03-1.07-.06-1.88.14-2.91.3l1.23-6.14h11.35v-6.14Z"/>
      <path d="M79.63,35.59c12.41,1.1,17.45,13.9,13.74,24.79-1.71,5.01-7.31,9.89-12.82,9.89h-13.65v-34.67c4.12.27,8.67-.36,12.73,0ZM73.64,42.04v21.79h5.37c1.25,0,3.53-.83,4.65-1.49,4.98-2.9,5.21-11.7,2.25-16.15-2.64-3.98-7.91-4.25-12.27-4.14Z" style="fill: #d9b628;"/>
      <path d="M28.84,70.27l13.38-34.69,6.84.05,13.22,34.64h-7.06l-2.65-7.02-14.26.14-2.88,6.88h-6.6ZM50.02,56.46l-4.45-11.66-4.45,11.66h8.9Z" style="fill: #d82b39;"/>
      <path d="M55.85,85.3c-.88-11.2,14.48-16.54,20.82-7.47,6.31,9.04-4.45,18.82-10.08,24.96h12.27v6.14h-24.24c.1-.91-.16-2.04,0-2.91.19-1.01,12.08-12.17,13.96-14.58,1.97-2.53,3.58-4.74,3.22-8.14-.48-4.43-6.98-5.31-8.86-1.19-.49,1.07-.37,2.28-1.11,3.19h-5.98Z" style="fill: #0092a8;"/>
      <path d="M104.63,74.26v6.14h-11.35l-1.23,6.14c1.02-.16,1.83-.36,2.91-.3,10.72.58,13.63,14.83,5.69,21.03-6.57,5.12-17.87,1.85-19.03-6.91h6.6c.3,0,1.2,1.53,1.54,1.84,1.68,1.53,4.02,1.82,6.06.85,5.08-2.4,3.2-11.81-3.55-10.3-1.03.23-2.08,1.68-2.84,1.78-1.33.18-3.85-1.07-5.35-.93l4.3-19.33h16.26Z" style="fill: #007534;"/>
      <path d="M44.49,81.77c.29-3.04,1.53-6.13,3.52-8.43l2.31,1.68-2.15,4.75h2.45v6.75h-6.14c.11-1.54-.15-3.24,0-4.76Z" style="fill: #7a316e;"/>
      <path d="M73.64,42.04c4.37-.1,9.63.16,12.27,4.14,2.96,4.46,2.72,13.26-2.25,16.15-1.13.66-3.4,1.49-4.65,1.49h-5.37v-21.79Z"/>
      <polygon points="50.02 56.46 41.12 56.46 45.57 44.8 50.02 56.46"/>
      <rect width="138.69" height="139.92" style="fill: none;"/>
    </g>
  </g>
</svg>